<svg width="416" height="439" viewBox="0 0 416 439" fill="none" xmlns="http://www.w3.org/2000/svg">
<g filter="url(#filter0_d_2_13)">
<path d="M322.343 112.226C312.111 107.909 303.692 100.179 298.521 90.351C293.35 80.5234 291.747 69.2068 293.984 58.3295C296.222 47.4521 302.161 37.687 310.791 30.6981C319.421 23.7091 330.208 19.9287 341.312 20.001C352.417 20.0733 363.153 23.9938 371.692 31.0944C380.23 38.1951 386.042 48.0367 388.138 58.9422C390.233 69.8478 388.483 81.1425 383.184 90.902C377.886 100.662 369.367 108.282 359.08 112.465L350.179 90.5732C355.401 88.4497 359.726 84.5811 362.415 79.6266C365.105 74.672 365.994 68.938 364.93 63.4017C363.866 57.8653 360.916 52.8691 356.581 49.2643C352.247 45.6596 346.796 43.6693 341.159 43.6326C335.521 43.5959 330.045 45.5151 325.664 49.0631C321.283 52.6112 318.268 57.5686 317.132 63.0906C315.996 68.6126 316.81 74.3577 319.435 79.3468C322.06 84.336 326.334 88.2606 331.529 90.4518L322.343 112.226Z" fill="url(#paint0_linear_2_13)"/>
<path d="M354.642 226.245C351.879 226.6 349.046 226.812 346.071 226.812C327.654 226.812 311.221 218.73 299.958 206.252C288.696 218.73 272.262 226.812 253.775 226.812C235.287 226.812 218.854 218.73 207.592 206.252C196.329 218.73 179.967 226.812 161.408 226.812C142.992 226.812 126.558 218.73 115.296 206.252C104.033 218.73 87.5999 226.812 69.0841 226.812C66.2082 226.812 63.3112 226.6 60.4991 226.245C21.3141 220.999 2.77345 174.773 23.7295 141.593L64.3382 77.309C67.9507 71.53 74.4037 68 81.2957 68H334.029C340.9 68 347.346 71.5293 350.958 77.309L391.546 141.593C412.583 174.844 393.954 220.999 354.642 226.245ZM357.617 248.72C360.025 248.366 363.496 247.798 366.329 247.089V385.625C366.329 410.652 346 431 320.996 431H94.3291C69.2966 431 48.9957 410.652 48.9957 385.625V247.089C51.737 247.798 54.5632 248.366 57.4745 248.72H57.5595C61.2853 249.216 65.167 249.5 69.0841 249.5C77.8957 249.5 86.3957 248.153 94.3291 245.671C94.3291 245.671 80.106 306.163 94.3291 340.25C128.416 421.943 286.931 421.952 320.996 340.25C335.199 306.185 320.996 245.742 320.996 245.742C328.929 248.153 337.358 249.5 346.071 249.5C350.037 249.5 353.862 249.216 357.617 248.72Z" fill="url(#paint1_linear_2_13)"/>
<g filter="url(#filter1_d_2_13)">
<path d="M120.548 160.518C120.548 158.844 120.285 157.366 119.76 156.086C119.267 154.773 118.381 153.591 117.1 152.54C115.853 151.49 114.113 150.488 111.88 149.536C109.681 148.584 106.89 147.616 103.509 146.631C99.9632 145.58 96.7623 144.415 93.9061 143.135C91.0499 141.821 88.6041 140.328 86.5686 138.653C84.5332 136.979 82.9737 135.058 81.8903 132.892C80.807 130.725 80.2653 128.246 80.2653 125.456C80.2653 122.665 80.8398 120.088 81.9888 117.724C83.1379 115.36 84.7794 113.309 86.9133 111.569C89.0801 109.796 91.6572 108.417 94.6448 107.432C97.6323 106.447 100.965 105.955 104.641 105.955C110.026 105.955 114.589 106.989 118.332 109.057C122.107 111.093 124.98 113.768 126.949 117.084C128.919 120.367 129.904 123.88 129.904 127.622H120.449C120.449 124.93 119.875 122.55 118.726 120.482C117.576 118.381 115.836 116.739 113.506 115.557C111.175 114.343 108.22 113.735 104.641 113.735C101.26 113.735 98.4694 114.244 96.2698 115.262C94.0702 116.28 92.4287 117.659 91.3454 119.399C90.2948 121.139 89.7695 123.125 89.7695 125.357C89.7695 126.867 90.0814 128.246 90.7052 129.494C91.3618 130.708 92.3631 131.841 93.7091 132.892C95.088 133.942 96.828 134.911 98.9291 135.797C101.063 136.683 103.607 137.537 106.562 138.358C110.633 139.507 114.146 140.787 117.1 142.199C120.055 143.611 122.485 145.203 124.389 146.976C126.326 148.716 127.754 150.702 128.673 152.934C129.625 155.134 130.101 157.629 130.101 160.42C130.101 163.341 129.51 165.984 128.328 168.348C127.146 170.712 125.456 172.731 123.256 174.405C121.056 176.079 118.414 177.376 115.328 178.295C112.274 179.182 108.86 179.625 105.085 179.625C101.769 179.625 98.5023 179.165 95.2849 178.246C92.1004 177.327 89.195 175.948 86.5686 174.11C83.975 172.271 81.8903 170.006 80.3145 167.314C78.7715 164.589 78 161.437 78 157.859H87.455C87.455 160.321 87.931 162.439 88.8831 164.211C89.8352 165.951 91.132 167.396 92.7735 168.545C94.4478 169.694 96.3355 170.548 98.4366 171.106C100.571 171.631 102.787 171.894 105.085 171.894C108.4 171.894 111.207 171.434 113.506 170.515C115.804 169.595 117.544 168.282 118.726 166.575C119.94 164.868 120.548 162.849 120.548 160.518Z" fill="white"/>
<path d="M135.764 103V178.64H126.654V103H135.764ZM133.597 149.98L129.806 149.832C129.838 146.188 130.38 142.823 131.431 139.737C132.481 136.618 133.959 133.909 135.863 131.611C137.767 129.313 140.032 127.54 142.659 126.293C145.318 125.012 148.256 124.372 151.473 124.372C154.1 124.372 156.463 124.733 158.565 125.456C160.666 126.145 162.455 127.261 163.932 128.804C165.442 130.347 166.592 132.35 167.379 134.812C168.167 137.242 168.561 140.213 168.561 143.725V178.64H159.402V143.627C159.402 140.836 158.991 138.604 158.171 136.93C157.35 135.223 156.152 133.991 154.576 133.236C153 132.448 151.063 132.054 148.765 132.054C146.5 132.054 144.431 132.531 142.56 133.483C140.722 134.435 139.129 135.748 137.783 137.422C136.47 139.096 135.436 141.017 134.681 143.184C133.959 145.318 133.597 147.583 133.597 149.98Z" fill="white"/>
<path d="M165.607 152.59V151.457C165.607 147.616 166.165 144.054 167.281 140.771C168.397 137.455 170.006 134.582 172.107 132.153C174.208 129.691 176.752 127.787 179.74 126.441C182.727 125.062 186.076 124.372 189.786 124.372C193.528 124.372 196.894 125.062 199.881 126.441C202.901 127.787 205.462 129.691 207.563 132.153C209.697 134.582 211.322 137.455 212.438 140.771C213.555 144.054 214.113 147.616 214.113 151.457V152.59C214.113 156.431 213.555 159.993 212.438 163.276C211.322 166.559 209.697 169.431 207.563 171.894C205.462 174.323 202.918 176.227 199.93 177.606C196.976 178.952 193.627 179.625 189.884 179.625C186.142 179.625 182.777 178.952 179.789 177.606C176.802 176.227 174.241 174.323 172.107 171.894C170.006 169.431 168.397 166.559 167.281 163.276C166.165 159.993 165.607 156.431 165.607 152.59ZM174.717 151.457V152.59C174.717 155.249 175.029 157.76 175.653 160.124C176.276 162.455 177.212 164.523 178.46 166.329C179.74 168.135 181.332 169.563 183.236 170.613C185.14 171.631 187.356 172.14 189.884 172.14C192.379 172.14 194.563 171.631 196.434 170.613C198.338 169.563 199.914 168.135 201.161 166.329C202.409 164.523 203.345 162.455 203.968 160.124C204.625 157.76 204.953 155.249 204.953 152.59V151.457C204.953 148.831 204.625 146.352 203.968 144.021C203.345 141.657 202.393 139.573 201.112 137.767C199.865 135.928 198.289 134.484 196.385 133.433C194.513 132.383 192.314 131.857 189.786 131.857C187.291 131.857 185.091 132.383 183.187 133.433C181.316 134.484 179.74 135.928 178.46 137.767C177.212 139.573 176.276 141.657 175.653 144.021C175.029 146.352 174.717 148.831 174.717 151.457Z" fill="white"/>
<path d="M210.961 152.491V151.358C210.961 147.517 211.519 143.955 212.635 140.672C213.752 137.356 215.36 134.484 217.461 132.054C219.563 129.592 222.107 127.688 225.094 126.342C228.082 124.963 231.431 124.274 235.14 124.274C238.883 124.274 242.248 124.963 245.236 126.342C248.256 127.688 250.817 129.592 252.918 132.054C255.052 134.484 256.677 137.356 257.793 140.672C258.909 143.955 259.467 147.517 259.467 151.358V152.491C259.467 156.332 258.909 159.894 257.793 163.177C256.677 166.46 255.052 169.333 252.918 171.795C250.817 174.224 248.272 176.129 245.285 177.507C242.33 178.853 238.981 179.527 235.239 179.527C231.496 179.527 228.131 178.853 225.144 177.507C222.156 176.129 219.595 174.224 217.461 171.795C215.36 169.333 213.752 166.46 212.635 163.177C211.519 159.894 210.961 156.332 210.961 152.491ZM220.071 151.358V152.491C220.071 155.15 220.383 157.662 221.007 160.026C221.631 162.356 222.566 164.425 223.814 166.23C225.094 168.036 226.687 169.464 228.591 170.515C230.495 171.532 232.711 172.041 235.239 172.041C237.734 172.041 239.917 171.532 241.788 170.515C243.693 169.464 245.268 168.036 246.516 166.23C247.763 164.425 248.699 162.356 249.323 160.026C249.979 157.662 250.308 155.15 250.308 152.491V151.358C250.308 148.732 249.979 146.253 249.323 143.922C248.699 141.559 247.747 139.474 246.467 137.668C245.219 135.83 243.643 134.385 241.739 133.335C239.868 132.284 237.668 131.759 235.14 131.759C232.645 131.759 230.446 132.284 228.542 133.335C226.67 134.385 225.094 135.83 223.814 137.668C222.566 139.474 221.631 141.559 221.007 143.922C220.383 146.253 220.071 148.732 220.071 151.358Z" fill="white"/>
<path d="M280.643 179.625C276.933 179.625 273.568 179.001 270.547 177.754C267.56 176.473 264.983 174.684 262.816 172.386C260.682 170.088 259.041 167.363 257.891 164.211C256.742 161.06 256.168 157.613 256.168 153.87V151.802C256.168 147.468 256.808 143.611 258.088 140.229C259.369 136.815 261.109 133.926 263.308 131.562C265.508 129.198 268.003 127.409 270.794 126.194C273.584 124.98 276.473 124.372 279.461 124.372C283.269 124.372 286.552 125.029 289.31 126.342C292.1 127.655 294.382 129.494 296.155 131.857C297.928 134.188 299.241 136.946 300.094 140.131C300.948 143.282 301.375 146.729 301.375 150.472V154.559H261.585V147.123H292.264V146.434C292.133 144.07 291.641 141.772 290.787 139.54C289.966 137.307 288.653 135.469 286.847 134.024C285.042 132.58 282.58 131.857 279.461 131.857C277.392 131.857 275.488 132.301 273.748 133.187C272.008 134.041 270.515 135.321 269.267 137.028C268.02 138.735 267.051 140.82 266.362 143.282C265.672 145.745 265.327 148.584 265.327 151.802V153.87C265.327 156.398 265.672 158.778 266.362 161.01C267.084 163.21 268.118 165.147 269.464 166.821C270.843 168.496 272.501 169.809 274.438 170.761C276.408 171.713 278.64 172.189 281.135 172.189C284.352 172.189 287.077 171.532 289.31 170.219C291.542 168.906 293.496 167.15 295.17 164.95L300.685 169.333C299.536 171.073 298.075 172.731 296.302 174.307C294.53 175.882 292.346 177.163 289.753 178.148C287.192 179.133 284.155 179.625 280.643 179.625Z" fill="white"/>
<path d="M328.853 164.507C328.853 163.194 328.558 161.979 327.967 160.863C327.409 159.714 326.243 158.68 324.471 157.76C322.731 156.808 320.104 155.987 316.591 155.298C313.637 154.674 310.961 153.936 308.564 153.082C306.201 152.228 304.182 151.194 302.507 149.98C300.866 148.765 299.602 147.337 298.715 145.695C297.829 144.054 297.386 142.133 297.386 139.934C297.386 137.833 297.845 135.846 298.765 133.975C299.717 132.104 301.046 130.446 302.754 129.001C304.494 127.557 306.578 126.424 309.008 125.603C311.437 124.783 314.146 124.372 317.133 124.372C321.401 124.372 325.045 125.127 328.065 126.638C331.086 128.148 333.4 130.167 335.009 132.695C336.618 135.19 337.422 137.964 337.422 141.017H328.312C328.312 139.54 327.868 138.112 326.982 136.733C326.128 135.321 324.864 134.156 323.19 133.236C321.549 132.317 319.53 131.857 317.133 131.857C314.605 131.857 312.553 132.251 310.977 133.039C309.434 133.794 308.302 134.763 307.58 135.945C306.89 137.127 306.545 138.374 306.545 139.687C306.545 140.672 306.71 141.559 307.038 142.347C307.399 143.102 308.023 143.808 308.909 144.464C309.796 145.088 311.043 145.679 312.652 146.237C314.26 146.795 316.312 147.353 318.807 147.911C323.174 148.896 326.769 150.078 329.592 151.457C332.415 152.836 334.516 154.527 335.895 156.529C337.274 158.532 337.964 160.961 337.964 163.817C337.964 166.148 337.471 168.282 336.486 170.219C335.534 172.156 334.139 173.831 332.3 175.242C330.495 176.621 328.328 177.704 325.8 178.492C323.305 179.247 320.498 179.625 317.379 179.625C312.685 179.625 308.712 178.788 305.462 177.114C302.212 175.439 299.75 173.272 298.075 170.613C296.401 167.954 295.564 165.147 295.564 162.192H304.723C304.855 164.687 305.577 166.674 306.89 168.151C308.203 169.595 309.812 170.63 311.716 171.253C313.62 171.844 315.508 172.14 317.379 172.14C319.874 172.14 321.959 171.811 323.633 171.155C325.341 170.498 326.637 169.595 327.524 168.446C328.41 167.297 328.853 165.984 328.853 164.507Z" fill="white"/>
</g>
<g filter="url(#filter2_f_2_13)">
<ellipse cx="324.5" cy="97.5" rx="5.5" ry="14.5" fill="black"/>
</g>
<path d="M321.448 108C315.939 109.5 307.597 103.519 302.486 96.6477C297.375 89.7768 294.196 81.6637 293.277 73.1498C292.358 64.6359 293.734 56.0313 297.261 48.2282C300.789 40.4251 306.339 33.7077 313.338 28.7726C320.336 23.8376 328.527 20.8645 337.061 20.1619C345.596 19.4592 354.163 21.0524 361.874 24.7764C369.585 28.5004 376.16 34.2194 380.916 41.3405C385.672 48.4616 388.436 56.7254 388.923 65.2749L365.329 66.6165C365.082 62.2763 363.678 58.081 361.264 54.4659C358.849 50.8508 355.512 47.9474 351.597 46.0569C347.682 44.1664 343.333 43.3575 339 43.7143C334.668 44.071 330.51 45.5803 326.957 48.0856C323.404 50.591 320.586 54.0012 318.795 57.9625C317.005 61.9239 316.306 66.2922 316.773 70.6144C317.239 74.9366 318.853 79.0553 321.448 82.5434C324.043 86.0316 322.951 84.3103 326.957 86C326.957 86 326.957 106.5 321.448 108Z" fill="url(#paint2_linear_2_13)"/>
</g>
<defs>
<filter id="filter0_d_2_13" x="0" y="0.200928" width="416" height="438.799" filterUnits="userSpaceOnUse" color-interpolation-filters="sRGB">
<feFlood flood-opacity="0" result="BackgroundImageFix"/>
<feColorMatrix in="SourceAlpha" type="matrix" values="0 0 0 0 0 0 0 0 0 0 0 0 0 0 0 0 0 0 127 0" result="hardAlpha"/>
<feOffset dy="4"/>
<feGaussianBlur stdDeviation="2"/>
<feComposite in2="hardAlpha" operator="out"/>
<feColorMatrix type="matrix" values="0 0 0 0 0 0 0 0 0 0 0 0 0 0 0 0 0 0 0.25 0"/>
<feBlend mode="normal" in2="BackgroundImageFix" result="effect1_dropShadow_2_13"/>
<feBlend mode="normal" in="SourceGraphic" in2="effect1_dropShadow_2_13" result="shape"/>
</filter>
<filter id="filter1_d_2_13" x="74" y="102" width="273.964" height="90.625" filterUnits="userSpaceOnUse" color-interpolation-filters="sRGB">
<feFlood flood-opacity="0" result="BackgroundImageFix"/>
<feColorMatrix in="SourceAlpha" type="matrix" values="0 0 0 0 0 0 0 0 0 0 0 0 0 0 0 0 0 0 127 0" result="hardAlpha"/>
<feOffset dx="3" dy="6"/>
<feGaussianBlur stdDeviation="3.5"/>
<feComposite in2="hardAlpha" operator="out"/>
<feColorMatrix type="matrix" values="0 0 0 0 0 0 0 0 0 0 0 0 0 0 0 0 0 0 0.25 0"/>
<feBlend mode="normal" in2="BackgroundImageFix" result="effect1_dropShadow_2_13"/>
<feBlend mode="normal" in="SourceGraphic" in2="effect1_dropShadow_2_13" result="shape"/>
</filter>
<filter id="filter2_f_2_13" x="300" y="64" width="49" height="67" filterUnits="userSpaceOnUse" color-interpolation-filters="sRGB">
<feFlood flood-opacity="0" result="BackgroundImageFix"/>
<feBlend mode="normal" in="SourceGraphic" in2="BackgroundImageFix" result="shape"/>
<feGaussianBlur stdDeviation="9.5" result="effect1_foregroundBlur_2_13"/>
</filter>
<linearGradient id="paint0_linear_2_13" x1="390" y1="94" x2="358" y2="128" gradientUnits="userSpaceOnUse">
<stop stop-color="#005F2F"/>
<stop offset="1"/>
</linearGradient>
<linearGradient id="paint1_linear_2_13" x1="207.653" y1="68" x2="207.653" y2="431" gradientUnits="userSpaceOnUse">
<stop stop-color="#00AB55"/>
<stop offset="1" stop-color="#008240"/>
</linearGradient>
<linearGradient id="paint2_linear_2_13" x1="225" y1="169" x2="305.421" y2="35.7804" gradientUnits="userSpaceOnUse">
<stop/>
<stop offset="1" stop-color="#005F2F"/>
</linearGradient>
</defs>
</svg>
